<?xml version="1.0" standalone="no"?><svg xmlns:xlink="http://www.w3.org/1999/xlink" xmlns="http://www.w3.org/2000/svg" viewBox="0 0 1000 666.6666666666666" preserveAspectRatio="xMaxYMax slice"><g transform="scale(1.9102196752626552)"><rect x="0" y="0" width="523.5" height="349" fill="#ffffff"/><rect x="0" y="0" width="43.625" height="43.625" fill="#ffffff"/><rect x="0" y="0" width="21.81" height="21.81" fill="#37426b"/><polygon points="21.81,0 21.81,21.81 0,21.81" fill="#ffffff"/><rect x="21.81" y="0" width="21.81" height="21.81" fill="#ffffff"/><polygon points="21.81,0 43.62,0 21.81,21.81" fill="#7c839e"/><rect x="0" y="21.81" width="21.81" height="21.81" fill="#838aa3"/><polygon points="0,21.81 21.81,21.81 21.81,43.62" fill="#bec2cf"/><rect x="21.81" y="21.81" width="21.81" height="21.81" fill="#e0e2e8"/><polygon points="21.81,21.81 43.62,43.62 21.81,43.62" fill="#5a6385"/><rect x="43.63" y="0" width="43.63" height="43.63" fill="#38426b"/><polygon points="87.26,0 87.26,43.63 43.63,43.63" fill="#ffffff"/><rect x="87.25" y="0" width="43.625" height="43.625" fill="#ffffff"/><rect x="87.25" y="0" width="21.81" height="21.81" fill="#ffffff"/><path d="M 87.25 21.81 A 21.81 21.81 0 0 1  109.06 0 L 109.06 21.81" fill="#ffffff"/><rect x="109.06" y="0" width="21.81" height="21.81" fill="#ffffff"/><path d="M 109.06 0 A 21.81 21.81 0 0 1 130.87 21.81 L 109.06 21.81" fill="#8990a8"/><rect x="87.25" y="21.81" width="21.81" height="21.81" fill="#9fa4b8"/><path d="M 87.25 21.81 A 21.81 21.81 0 0 0 109.06 43.62 L 109.06 21.81" fill="#ffffff"/><rect x="109.06" y="21.81" width="21.81" height="21.81" fill="#b7bbca"/><path d="M 109.06 43.62 A 21.81 21.81 0 0 0 130.87 21.81 L 109.06 21.81" fill="#ffffff"/><rect x="130.875" y="0" width="43.625" height="43.625" fill="#ffffff"/><rect x="130.88" y="0" width="21.81" height="21.81" fill="#e8e9ee"/><polygon points="152.69,0 152.69,21.81 130.88,21.81" fill="#fefefe"/><rect x="152.69" y="0" width="21.81" height="21.81" fill="#ffffff"/><polygon points="152.69,0 174.5,0 152.69,21.81" fill="#fdfdfd"/><rect x="130.88" y="21.81" width="21.81" height="21.81" fill="#737a97"/><polygon points="130.88,21.81 152.69,21.81 152.69,43.62" fill="#ffffff"/><rect x="152.69" y="21.81" width="21.81" height="21.81" fill="#8f95ac"/><polygon points="152.69,21.81 174.5,43.62 152.69,43.62" fill="#ffffff"/><rect x="174.5" y="0" width="43.63" height="43.63" fill="#ffffff"/><polygon points="174.5,0 218.13,0 218.13,43.63" fill="#ffffff"/><rect x="218.13" y="0" width="43.63" height="43.63" fill="#acb1c2"/><path d="M 218.13 43.63 A 43.63 43.63 0 0 0 261.76 0 L 218.13 0" fill="#e6e7ec"/><rect x="261.75" y="0" width="43.63" height="43.63" fill="#3c476f"/><polygon points="261.75,0 305.38,0 261.75,43.63" fill="#ffffff"/><rect x="305.375" y="0" width="43.625" height="43.625" fill="#ffffff"/><rect x="305.38" y="0" width="21.81" height="21.81" fill="#878da6"/><path d="M 305.38 0 A 21.81 21.81 0 0 0 327.19 21.81 L 327.19 0" fill="#d6d8e1"/><rect x="327.19" y="0" width="21.81" height="21.81" fill="#a6abbd"/><path d="M 327.19 21.81 A 21.81 21.81 0 0 0 349 0 L 327.19 0" fill="#ffffff"/><rect x="305.38" y="21.81" width="21.81" height="21.81" fill="#3f4970"/><path d="M 305.38 43.62 A 21.81 21.81 0 0 1  327.19 21.81 L 327.19 43.62" fill="#ecedf1"/><rect x="327.19" y="21.81" width="21.81" height="21.81" fill="#576083"/><path d="M 327.19 21.81 A 21.81 21.81 0 0 1 349 43.62 L 327.19 43.62" fill="#ffffff"/><rect x="349" y="0" width="43.63" height="43.63" fill="#ffffff"/><path d="M 349 43.63 A 43.63 43.63 0 0 0 392.63 0 L 349 0" fill="#656d8d"/><rect x="392.63" y="0" width="43.63" height="43.63" fill="#ffffff"/><path d="M 392.63 43.63 A 43.63 43.63 0 0 1  436.26 0 L 436.26 43.63" fill="#ffffff"/><rect x="436.25" y="0" width="43.63" height="43.63" fill="#6b7392"/><path d="M 436.25 0 A 43.63 43.63 0 0 0 479.88 43.63 L 479.88 0" fill="#39446c"/><rect x="479.875" y="0" width="43.625" height="43.625" fill="#ffffff"/><rect x="479.88" y="0" width="21.81" height="21.81" fill="#dddfe6"/><path d="M 479.88 0 A 21.81 21.81 0 0 0 501.69 21.81 L 501.69 0" fill="#ffffff"/><rect x="501.69" y="0" width="21.81" height="21.81" fill="#ffffff"/><path d="M 501.69 21.81 A 21.81 21.81 0 0 0 523.5 0 L 501.69 0" fill="#37426b"/><rect x="479.88" y="21.81" width="21.81" height="21.81" fill="#ffffff"/><path d="M 479.88 43.62 A 21.81 21.81 0 0 1  501.69 21.81 L 501.69 43.62" fill="#3f4a71"/><rect x="501.69" y="21.81" width="21.81" height="21.81" fill="#323d67"/><path d="M 501.69 21.81 A 21.81 21.81 0 0 1 523.5 43.62 L 501.69 43.62" fill="#ffffff"/><rect x="0" y="43.63" width="43.63" height="43.63" fill="#ffffff"/><rect x="0" y="43.63" width="43.63" height="43.63" fill="#ffffff"/><rect x="43.63" y="43.63" width="43.63" height="43.63" fill="#505a7e"/><path d="M 43.63 87.26 A 43.63 43.63 0 0 0 87.26 43.63 L 43.63 43.63" fill="#bfc3d0"/><rect x="87.25" y="43.625" width="43.625" height="43.625" fill="#ffffff"/><rect x="87.25" y="43.63" width="21.81" height="21.81" fill="#ffffff"/><path d="M 87.25 65.44 A 21.81 21.81 0 0 0 109.06 43.63 L 87.25 43.63" fill="#ffffff"/><rect x="109.06" y="43.63" width="21.81" height="21.81" fill="#606989"/><path d="M 109.06 43.63 A 21.81 21.81 0 0 0 130.87 65.44 L 130.87 43.63" fill="#ffffff"/><rect x="87.25" y="65.44" width="21.81" height="21.81" fill="#ffffff"/><path d="M 87.25 65.44 A 21.81 21.81 0 0 1 109.06 87.25 L 87.25 87.25" fill="#7d849e"/><rect x="109.06" y="65.44" width="21.81" height="21.81" fill="#c2c5d2"/><path d="M 109.06 87.25 A 21.81 21.81 0 0 1  130.87 65.44 L 130.87 87.25" fill="#a6abbd"/><rect x="130.88" y="43.63" width="43.63" height="43.63" fill="#ffffff"/><path d="M 130.88 87.26 A 43.63 43.63 0 0 1  174.51 43.63 L 174.51 87.26" fill="#ffffff"/><rect x="174.5" y="43.625" width="43.625" height="43.625" fill="#ffffff"/><rect x="174.5" y="43.63" width="21.81" height="21.81" fill="#868ca5"/><polygon points="196.31,43.63 196.31,65.44 174.5,65.44" fill="#5c6586"/><rect x="196.31" y="43.63" width="21.81" height="21.81" fill="#ffffff"/><polygon points="196.31,43.63 218.12,65.44 196.31,65.44" fill="#9fa4b8"/><rect x="174.5" y="65.44" width="21.81" height="21.81" fill="#ffffff"/><polygon points="174.5,65.44 196.31,65.44 174.5,87.25" fill="#ffffff"/><rect x="196.31" y="65.44" width="21.81" height="21.81" fill="#868da5"/><polygon points="196.31,65.44 218.12,65.44 218.12,87.25" fill="#969cb1"/><rect x="218.13" y="43.63" width="43.63" height="43.63" fill="#cbced8"/><path d="M 218.13 43.63 A 43.63 43.63 0 0 1 261.76 87.26 L 218.13 87.26" fill="#ffffff"/><rect x="261.75" y="43.63" width="43.63" height="43.63" fill="#babdcc"/><path d="M 261.75 43.63 A 43.63 43.63 0 0 1 305.38 87.26 L 261.75 87.26" fill="#c3c6d2"/><rect x="305.38" y="43.63" width="43.63" height="43.63" fill="#343f68"/><rect x="305.38" y="43.63" width="43.63" height="43.63" fill="#ffffff"/><rect x="349" y="43.625" width="43.625" height="43.625" fill="#ffffff"/><rect x="349" y="43.63" width="21.81" height="21.81" fill="#ffffff"/><circle cx="359.905" cy="54.535000000000004" r="10.905" fill="#9297ae"/><rect x="370.81" y="43.63" width="21.81" height="21.81" fill="#4a5479"/><rect x="370.81" y="43.63" width="21.81" height="21.81" fill="#ffffff"/><rect x="349" y="65.44" width="21.81" height="21.81" fill="#cacdd7"/><circle cx="359.905" cy="76.345" r="10.905" fill="#ffffff"/><rect x="370.81" y="65.44" width="21.81" height="21.81" fill="#ffffff"/><rect x="370.81" y="65.44" width="21.81" height="21.81" fill="#ffffff"/><rect x="392.625" y="43.625" width="43.625" height="43.625" fill="#ffffff"/><rect x="392.63" y="43.63" width="21.81" height="21.81" fill="#586184"/><circle cx="403.53499999999997" cy="54.535000000000004" r="10.905" fill="#ffffff"/><rect x="414.44" y="43.63" width="21.81" height="21.81" fill="#b7bbc9"/><rect x="414.44" y="43.63" width="21.81" height="21.81" fill="#454f75"/><rect x="392.63" y="65.44" width="21.81" height="21.81" fill="#ffffff"/><circle cx="403.53499999999997" cy="76.345" r="10.905" fill="#ffffff"/><rect x="414.44" y="65.44" width="21.81" height="21.81" fill="#ffffff"/><rect x="414.44" y="65.44" width="21.81" height="21.81" fill="#ffffff"/><rect x="436.25" y="43.63" width="43.63" height="43.63" fill="#ffffff"/><polygon points="436.25,43.63 479.88,43.63 479.88,87.26" fill="#ffffff"/><rect x="479.88" y="43.63" width="43.63" height="43.63" fill="#7a819c"/><path d="M 479.88 43.63 A 43.63 43.63 0 0 1  523.51 87.26 L 479.88 43.63 A 43.63 43.63 0 0 0 523.51 87.26" fill="#4f597d"/><rect x="0" y="87.25" width="43.625" height="43.625" fill="#ffffff"/><rect x="0" y="87.25" width="21.81" height="21.81" fill="#ffffff"/><polygon points="21.81,87.25 21.81,109.06 0,109.06" fill="#ffffff"/><rect x="21.81" y="87.25" width="21.81" height="21.81" fill="#ffffff"/><polygon points="21.81,87.25 43.62,87.25 21.81,109.06" fill="#ffffff"/><rect x="0" y="109.06" width="21.81" height="21.81" fill="#ffffff"/><polygon points="0,109.06 21.81,109.06 21.81,130.87" fill="#37426b"/><rect x="21.81" y="109.06" width="21.81" height="21.81" fill="#868ca5"/><polygon points="21.81,109.06 43.62,130.87 21.81,130.87" fill="#b4b8c7"/><rect x="43.63" y="87.25" width="43.63" height="43.63" fill="#ffffff"/><polygon points="43.63,87.25 87.26,87.25 87.26,130.88" fill="#ffffff"/><rect x="87.25" y="87.25" width="43.625" height="43.625" fill="#ffffff"/><rect x="87.25" y="87.25" width="21.81" height="21.81" fill="#ffffff"/><path d="M 87.25 109.06 A 21.81 21.81 0 0 1 109.06 87.25 L 109.06 92.7025 A 16.357499999999998 16.357499999999998 0 0 0 92.7025 109.06" fill="#354069"/><rect x="109.06" y="87.25" width="21.81" height="21.81" fill="#ffffff"/><path d="M 109.06 87.25 A 21.81 21.81 0 0 1 130.87 109.06 L 125.4175 109.06 A 16.357499999999998 16.357499999999998 0 0 0 109.06 92.7025" fill="#ffffff"/><rect x="87.25" y="109.06" width="21.81" height="21.81" fill="#ffffff"/><path d="M 87.25 109.06 A 21.81 21.81 0 0 0 109.06 130.87 L 109.06 125.4175 A 16.357499999999998 16.357499999999998 0 0 1 92.7025 109.06" fill="#acb0c1"/><rect x="109.06" y="109.06" width="21.81" height="21.81" fill="#c9ccd7"/><path d="M 109.06 130.87 A 21.81 21.81 0 0 0 130.87 109.06 L 125.4175 109.06 A 16.357499999999998 16.357499999999998 0 0 1 109.06 125.4175" fill="#ffffff"/><rect x="130.88" y="87.25" width="43.63" height="43.63" fill="#ffffff"/><polygon points="130.88,87.25 174.51,130.88 130.88,130.88" fill="#ffffff"/><rect x="174.5" y="87.25" width="43.625" height="43.625" fill="#ffffff"/><rect x="174.5" y="87.25" width="21.81" height="21.81" fill="#3c476f"/><path d="M 174.5 109.06 A 21.81 21.81 0 0 1  196.31 87.25 L 196.31 109.06" fill="#c2c5d1"/><rect x="196.31" y="87.25" width="21.81" height="21.81" fill="#ffffff"/><path d="M 196.31 87.25 A 21.81 21.81 0 0 1 218.12 109.06 L 196.31 109.06" fill="#ffffff"/><rect x="174.5" y="109.06" width="21.81" height="21.81" fill="#565f82"/><path d="M 174.5 109.06 A 21.81 21.81 0 0 0 196.31 130.87 L 196.31 109.06" fill="#ffffff"/><rect x="196.31" y="109.06" width="21.81" height="21.81" fill="#8289a3"/><path d="M 196.31 130.87 A 21.81 21.81 0 0 0 218.12 109.06 L 196.31 109.06" fill="#343f68"/><rect x="218.125" y="87.25" width="43.625" height="43.625" fill="#ffffff"/><rect x="218.13" y="87.25" width="21.81" height="21.81" fill="#ffffff"/><path d="M 218.13 87.25 A 21.81 21.81 0 0 0 239.94 109.06 L 239.94 87.25" fill="#606989"/><rect x="239.94" y="87.25" width="21.81" height="21.81" fill="#ffffff"/><path d="M 239.94 109.06 A 21.81 21.81 0 0 0 261.75 87.25 L 239.94 87.25" fill="#ebecf0"/><rect x="218.13" y="109.06" width="21.81" height="21.81" fill="#ffffff"/><path d="M 218.13 130.87 A 21.81 21.81 0 0 1  239.94 109.06 L 239.94 130.87" fill="#b8bccb"/><rect x="239.94" y="109.06" width="21.81" height="21.81" fill="#ffffff"/><path d="M 239.94 109.06 A 21.81 21.81 0 0 1 261.75 130.87 L 239.94 130.87" fill="#ffffff"/><rect x="261.75" y="87.25" width="43.625" height="43.625" fill="#ffffff"/><rect x="261.75" y="87.25" width="21.81" height="21.81" fill="#ffffff"/><path d="M 261.75 109.06 A 21.81 21.81 0 0 1  283.56 87.25 L 283.56 109.06" fill="#ffffff"/><rect x="283.56" y="87.25" width="21.81" height="21.81" fill="#ffffff"/><path d="M 283.56 87.25 A 21.81 21.81 0 0 1 305.37 109.06 L 283.56 109.06" fill="#ffffff"/><rect x="261.75" y="109.06" width="21.81" height="21.81" fill="#ffffff"/><path d="M 261.75 109.06 A 21.81 21.81 0 0 0 283.56 130.87 L 283.56 109.06" fill="#4a5479"/><rect x="283.56" y="109.06" width="21.81" height="21.81" fill="#6a7290"/><path d="M 283.56 130.87 A 21.81 21.81 0 0 0 305.37 109.06 L 283.56 109.06" fill="#424c73"/><rect x="305.38" y="87.25" width="43.63" height="43.63" fill="#ffffff"/><path d="M 305.38 130.88 A 43.63 43.63 0 0 0 349.01 87.25 L 305.38 87.25" fill="#ffffff"/><rect x="349" y="87.25" width="43.63" height="43.63" fill="#ffffff"/><polygon points="349,87.25 392.63,87.25 392.63,130.88" fill="#ffffff"/><rect x="392.63" y="87.25" width="43.63" height="43.63" fill="#ffffff"/><path d="M 392.63 130.88 A 43.63 43.63 0 0 1  436.26 87.25 L 436.26 130.88" fill="#3f4970"/><rect x="436.25" y="87.25" width="43.625" height="43.625" fill="#ffffff"/><rect x="436.25" y="87.25" width="21.81" height="21.81" fill="#ffffff"/><circle cx="447.155" cy="98.155" r="10.905" fill="#5e6687"/><rect x="458.06" y="87.25" width="21.81" height="21.81" fill="#e2e3e9"/><rect x="458.06" y="87.25" width="21.81" height="21.81" fill="#a3a8bb"/><rect x="436.25" y="109.06" width="21.81" height="21.81" fill="#414b72"/><circle cx="447.155" cy="119.965" r="10.905" fill="#ffffff"/><rect x="458.06" y="109.06" width="21.81" height="21.81" fill="#ffffff"/><rect x="458.06" y="109.06" width="21.81" height="21.81" fill="#9298ae"/><rect x="479.875" y="87.25" width="43.625" height="43.625" fill="#ffffff"/><rect x="479.88" y="87.25" width="21.81" height="21.81" fill="#9197ad"/><polygon points="501.69,87.25 501.69,109.06 479.88,109.06" fill="#e9ebef"/><rect x="501.69" y="87.25" width="21.81" height="21.81" fill="#8990a8"/><polygon points="501.69,87.25 523.5,87.25 501.69,109.06" fill="#717895"/><rect x="479.88" y="109.06" width="21.81" height="21.81" fill="#bfc2cf"/><polygon points="479.88,109.06 501.69,109.06 501.69,130.87" fill="#ffffff"/><rect x="501.69" y="109.06" width="21.81" height="21.81" fill="#8187a1"/><polygon points="501.69,109.06 523.5,130.87 501.69,130.87" fill="#b6bac9"/><rect x="0" y="130.88" width="43.63" height="43.63" fill="#606989"/><path d="M 0 130.88 A 43.63 43.63 0 0 1 43.63 174.51 L 0 174.51" fill="#f8f9fa"/><rect x="43.625" y="130.875" width="43.625" height="43.625" fill="#ffffff"/><rect x="43.63" y="130.88" width="21.81" height="21.81" fill="#e3e5eb"/><path d="M 43.63 130.88 A 21.81 21.81 0 0 0 65.44 152.69 L 65.44 130.88" fill="#ffffff"/><rect x="65.44" y="130.88" width="21.81" height="21.81" fill="#ffffff"/><path d="M 65.44 152.69 A 21.81 21.81 0 0 0 87.25 130.88 L 65.44 130.88" fill="#ffffff"/><rect x="43.63" y="152.69" width="21.81" height="21.81" fill="#cfd1db"/><path d="M 43.63 174.5 A 21.81 21.81 0 0 1  65.44 152.69 L 65.44 174.5" fill="#d6d8e0"/><rect x="65.44" y="152.69" width="21.81" height="21.81" fill="#ffffff"/><path d="M 65.44 152.69 A 21.81 21.81 0 0 1 87.25 174.5 L 65.44 174.5" fill="#f6f7f9"/><rect x="87.25" y="130.875" width="43.625" height="43.625" fill="#ffffff"/><rect x="87.25" y="130.88" width="21.81" height="21.81" fill="#535c7f"/><path d="M 87.25 152.69 A 21.81 21.81 0 0 1  109.06 130.88 L 109.06 152.69" fill="#c8cbd6"/><rect x="109.06" y="130.88" width="21.81" height="21.81" fill="#dddfe6"/><path d="M 109.06 130.88 A 21.81 21.81 0 0 1 130.87 152.69 L 109.06 152.69" fill="#767e9a"/><rect x="87.25" y="152.69" width="21.81" height="21.81" fill="#bfc3d0"/><path d="M 87.25 152.69 A 21.81 21.81 0 0 0 109.06 174.5 L 109.06 152.69" fill="#ffffff"/><rect x="109.06" y="152.69" width="21.81" height="21.81" fill="#37426b"/><path d="M 109.06 174.5 A 21.81 21.81 0 0 0 130.87 152.69 L 109.06 152.69" fill="#ffffff"/><rect x="130.88" y="130.88" width="43.63" height="43.63" fill="#9298ae"/><path d="M 130.88 130.88 A 43.63 43.63 0 0 0 174.51 174.51 L 174.51 130.88" fill="#c3c6d3"/><rect x="174.5" y="130.875" width="43.625" height="43.625" fill="#ffffff"/><rect x="174.5" y="130.88" width="21.81" height="21.81" fill="#737b98"/><circle cx="185.405" cy="141.785" r="10.905" fill="#ffffff"/><rect x="196.31" y="130.88" width="21.81" height="21.81" fill="#858ba4"/><rect x="196.31" y="130.88" width="21.81" height="21.81" fill="#ffffff"/><rect x="174.5" y="152.69" width="21.81" height="21.81" fill="#ffffff"/><circle cx="185.405" cy="163.595" r="10.905" fill="#ffffff"/><rect x="196.31" y="152.69" width="21.81" height="21.81" fill="#ffffff"/><rect x="196.31" y="152.69" width="21.81" height="21.81" fill="#949ab0"/><rect x="218.13" y="130.88" width="43.63" height="43.63" fill="#ffffff"/><path d="M 218.13 130.88 A 43.63 43.63 0 0 1 261.76 174.51 L 218.13 174.51" fill="#ffffff"/><rect x="261.75" y="130.88" width="43.63" height="43.63" fill="#ffffff"/><rect x="261.75" y="130.88" width="43.63" height="43.63" fill="#b7bbca"/><rect x="305.38" y="130.88" width="43.63" height="43.63" fill="#949ab0"/><polygon points="305.38,130.88 349.01,130.88 349.01,174.51" fill="#858ca5"/><rect x="349" y="130.88" width="43.63" height="43.63" fill="#f2f3f6"/><path d="M 349 130.88 A 43.63 43.63 0 0 1 392.63 174.51 L 349 174.51" fill="#e1e3e9"/><rect x="392.63" y="130.88" width="43.63" height="43.63" fill="#a6abbd"/><path d="M 392.63 130.88 A 43.63 43.63 0 0 1  436.26 174.51 L 392.63 130.88 A 43.63 43.63 0 0 0 436.26 174.51" fill="#9da3b7"/><rect x="436.25" y="130.875" width="43.625" height="43.625" fill="#ffffff"/><rect x="436.25" y="130.88" width="21.81" height="21.81" fill="#414b72"/><circle cx="447.155" cy="141.785" r="10.905" fill="#ffffff"/><rect x="458.06" y="130.88" width="21.81" height="21.81" fill="#d6d9e1"/><rect x="458.06" y="130.88" width="21.81" height="21.81" fill="#ffffff"/><rect x="436.25" y="152.69" width="21.81" height="21.81" fill="#ffffff"/><circle cx="447.155" cy="163.595" r="10.905" fill="#ffffff"/><rect x="458.06" y="152.69" width="21.81" height="21.81" fill="#b8bcca"/><rect x="458.06" y="152.69" width="21.81" height="21.81" fill="#ffffff"/><rect x="479.88" y="130.88" width="43.63" height="43.63" fill="#ffffff"/><polygon points="479.88,130.88 523.51,130.88 479.88,174.51" fill="#ffffff"/><rect x="0" y="174.5" width="43.63" height="43.63" fill="#dee0e7"/><path d="M 0 174.5 A 43.63 43.63 0 0 1 43.63 218.13 L 0 218.13" fill="#ffffff"/><rect x="43.63" y="174.5" width="43.63" height="43.63" fill="#c8cbd6"/><path d="M 43.63 218.13 A 43.63 43.63 0 0 1  87.26 174.5 L 43.63 218.13 A 43.63 43.63 0 0 0 87.26 174.5" fill="#e1e3e9"/><rect x="87.25" y="174.5" width="43.63" height="43.63" fill="#ffffff"/><rect x="87.25" y="174.5" width="43.63" height="43.63" fill="#ffffff"/><rect x="130.88" y="174.5" width="43.63" height="43.63" fill="#848aa3"/><path d="M 130.88 174.5 A 43.63 43.63 0 0 1  174.51 218.13 L 130.88 174.5 A 43.63 43.63 0 0 0 174.51 218.13" fill="#ffffff"/><rect x="174.5" y="174.5" width="43.625" height="43.625" fill="#ffffff"/><rect x="174.5" y="174.5" width="21.81" height="21.81" fill="#ffffff"/><polygon points="196.31,174.5 196.31,196.31 174.5,196.31" fill="#9197ae"/><rect x="196.31" y="174.5" width="21.81" height="21.81" fill="#606989"/><polygon points="196.31,174.5 218.12,174.5 196.31,196.31" fill="#ffffff"/><rect x="174.5" y="196.31" width="21.81" height="21.81" fill="#ffffff"/><polygon points="174.5,196.31 196.31,196.31 196.31,218.12" fill="#ffffff"/><rect x="196.31" y="196.31" width="21.81" height="21.81" fill="#9fa4b8"/><polygon points="196.31,196.31 218.12,218.12 196.31,218.12" fill="#ffffff"/><rect x="218.13" y="174.5" width="43.63" height="43.63" fill="#ffffff"/><polygon points="218.13,174.5 261.76,218.13 218.13,218.13" fill="#ced0da"/><rect x="261.75" y="174.5" width="43.625" height="43.625" fill="#ffffff"/><rect x="261.75" y="174.5" width="21.81" height="21.81" fill="#ffffff"/><path d="M 261.75 174.5 A 21.81 21.81 0 0 0 283.56 196.31 L 283.56 174.5" fill="#ffffff"/><rect x="283.56" y="174.5" width="21.81" height="21.81" fill="#ffffff"/><path d="M 283.56 196.31 A 21.81 21.81 0 0 0 305.37 174.5 L 283.56 174.5" fill="#d4d6df"/><rect x="261.75" y="196.31" width="21.81" height="21.81" fill="#ffffff"/><path d="M 261.75 218.12 A 21.81 21.81 0 0 1  283.56 196.31 L 283.56 218.12" fill="#b7bbca"/><rect x="283.56" y="196.31" width="21.81" height="21.81" fill="#ffffff"/><path d="M 283.56 196.31 A 21.81 21.81 0 0 1 305.37 218.12 L 283.56 218.12" fill="#757d99"/><rect x="305.38" y="174.5" width="43.63" height="43.63" fill="#d3d5de"/><rect x="305.38" y="174.5" width="43.63" height="43.63" fill="#4e577c"/><rect x="349" y="174.5" width="43.63" height="43.63" fill="#fdfdfe"/><rect x="349" y="174.5" width="43.63" height="43.63" fill="#a4a9bb"/><rect x="392.63" y="174.5" width="43.63" height="43.63" fill="#777e9a"/><rect x="392.63" y="174.5" width="43.63" height="43.63" fill="#e6e7ec"/><rect x="436.25" y="174.5" width="43.63" height="43.63" fill="#586183"/><polygon points="436.25,174.5 479.88,218.13 436.25,218.13" fill="#6e7593"/><rect x="479.875" y="174.5" width="43.625" height="43.625" fill="#ffffff"/><rect x="479.88" y="174.5" width="21.81" height="21.81" fill="#465076"/><path d="M 479.88 196.31 A 21.81 21.81 0 0 1 501.69 174.5 L 501.69 179.9525 A 16.357499999999998 16.357499999999998 0 0 0 485.3325 196.31" fill="#f9f9fb"/><rect x="501.69" y="174.5" width="21.81" height="21.81" fill="#ffffff"/><path d="M 501.69 174.5 A 21.81 21.81 0 0 1 523.5 196.31 L 518.0475 196.31 A 16.357499999999998 16.357499999999998 0 0 0 501.69 179.9525" fill="#8188a2"/><rect x="479.88" y="196.31" width="21.81" height="21.81" fill="#ffffff"/><path d="M 479.88 196.31 A 21.81 21.81 0 0 0 501.69 218.12 L 501.69 212.6675 A 16.357499999999998 16.357499999999998 0 0 1 485.3325 196.31" fill="#606989"/><rect x="501.69" y="196.31" width="21.81" height="21.81" fill="#444e74"/><path d="M 501.69 218.12 A 21.81 21.81 0 0 0 523.5 196.31 L 518.0475 196.31 A 16.357499999999998 16.357499999999998 0 0 1 501.69 212.6675" fill="#ffffff"/><rect x="0" y="218.125" width="43.625" height="43.625" fill="#ffffff"/><rect x="0" y="218.13" width="21.81" height="21.81" fill="#ffffff"/><polygon points="21.81,218.13 21.81,239.94 0,239.94" fill="#ffffff"/><rect x="21.81" y="218.13" width="21.81" height="21.81" fill="#9197ad"/><polygon points="21.81,218.13 43.62,239.94 21.81,239.94" fill="#767d99"/><rect x="0" y="239.94" width="21.81" height="21.81" fill="#ffffff"/><polygon points="0,239.94 21.81,239.94 21.81,261.75" fill="#ffffff"/><rect x="21.81" y="239.94" width="21.81" height="21.81" fill="#a8adbf"/><polygon points="21.81,239.94 43.62,239.94 21.81,261.75" fill="#ffffff"/><rect x="43.625" y="218.125" width="43.625" height="43.625" fill="#ffffff"/><rect x="43.63" y="218.13" width="21.81" height="21.81" fill="#ffffff"/><path d="M 43.63 218.13 A 21.81 21.81 0 0 0 65.44 239.94 L 65.44 218.13" fill="#ffffff"/><rect x="65.44" y="218.13" width="21.81" height="21.81" fill="#ffffff"/><path d="M 65.44 239.94 A 21.81 21.81 0 0 0 87.25 218.13 L 65.44 218.13" fill="#ffffff"/><rect x="43.63" y="239.94" width="21.81" height="21.81" fill="#ffffff"/><path d="M 43.63 261.75 A 21.81 21.81 0 0 1  65.44 239.94 L 65.44 261.75" fill="#a6abbd"/><rect x="65.44" y="239.94" width="21.81" height="21.81" fill="#ffffff"/><path d="M 65.44 239.94 A 21.81 21.81 0 0 1 87.25 261.75 L 65.44 261.75" fill="#6c7492"/><rect x="87.25" y="218.125" width="43.625" height="43.625" fill="#ffffff"/><rect x="87.25" y="218.13" width="21.81" height="21.81" fill="#3d476f"/><path d="M 87.25 218.13 A 21.81 21.81 0 0 1 109.06 239.94 L 87.25 239.94" fill="#8990a8"/><rect x="109.06" y="218.13" width="21.81" height="21.81" fill="#ffffff"/><path d="M 109.06 239.94 A 21.81 21.81 0 0 1  130.87 218.13 L 130.87 239.94" fill="#dddfe6"/><rect x="87.25" y="239.94" width="21.81" height="21.81" fill="#878ea6"/><path d="M 87.25 261.75 A 21.81 21.81 0 0 0 109.06 239.94 L 87.25 239.94" fill="#e4e6eb"/><rect x="109.06" y="239.94" width="21.81" height="21.81" fill="#cfd2db"/><path d="M 109.06 239.94 A 21.81 21.81 0 0 0 130.87 261.75 L 130.87 239.94" fill="#f3f4f6"/><rect x="130.88" y="218.13" width="43.63" height="43.63" fill="#7f85a0"/><rect x="130.88" y="218.13" width="43.63" height="43.63" fill="#68708f"/><rect x="174.5" y="218.13" width="43.63" height="43.63" fill="#8b91a9"/><polygon points="174.5,218.13 218.13,261.76 174.5,261.76" fill="#ffffff"/><rect x="218.125" y="218.125" width="43.625" height="43.625" fill="#ffffff"/><rect x="218.13" y="218.13" width="21.81" height="21.81" fill="#ffffff"/><path d="M 218.13 218.13 A 21.81 21.81 0 0 0 239.94 239.94 L 239.94 218.13" fill="#ffffff"/><rect x="239.94" y="218.13" width="21.81" height="21.81" fill="#dee0e7"/><path d="M 239.94 239.94 A 21.81 21.81 0 0 0 261.75 218.13 L 239.94 218.13" fill="#ffffff"/><rect x="218.13" y="239.94" width="21.81" height="21.81" fill="#ffffff"/><path d="M 218.13 261.75 A 21.81 21.81 0 0 1  239.94 239.94 L 239.94 261.75" fill="#ffffff"/><rect x="239.94" y="239.94" width="21.81" height="21.81" fill="#fefefe"/><path d="M 239.94 239.94 A 21.81 21.81 0 0 1 261.75 261.75 L 239.94 261.75" fill="#ffffff"/><rect x="261.75" y="218.125" width="43.625" height="43.625" fill="#ffffff"/><rect x="261.75" y="218.13" width="21.81" height="21.81" fill="#ffffff"/><path d="M 261.75 218.13 A 21.81 21.81 0 0 0 283.56 239.94 L 283.56 218.13" fill="#ffffff"/><rect x="283.56" y="218.13" width="21.81" height="21.81" fill="#ffffff"/><path d="M 283.56 239.94 A 21.81 21.81 0 0 0 305.37 218.13 L 283.56 218.13" fill="#e3e5ea"/><rect x="261.75" y="239.94" width="21.81" height="21.81" fill="#ffffff"/><path d="M 261.75 261.75 A 21.81 21.81 0 0 1  283.56 239.94 L 283.56 261.75" fill="#ffffff"/><rect x="283.56" y="239.94" width="21.81" height="21.81" fill="#ffffff"/><path d="M 283.56 239.94 A 21.81 21.81 0 0 1 305.37 261.75 L 283.56 261.75" fill="#4f597d"/><rect x="305.38" y="218.13" width="43.63" height="43.63" fill="#6a7290"/><path d="M 305.38 261.76 A 43.63 43.63 0 0 1  349.01 218.13 L 349.01 261.76" fill="#ffffff"/><rect x="349" y="218.13" width="43.63" height="43.63" fill="#ffffff"/><polygon points="392.63,218.13 392.63,261.76 349,261.76" fill="#ffffff"/><rect x="392.63" y="218.13" width="43.63" height="43.63" fill="#434d73"/><rect x="392.63" y="218.13" width="43.63" height="43.63" fill="#5e6687"/><rect x="436.25" y="218.125" width="43.625" height="43.625" fill="#ffffff"/><rect x="436.25" y="218.13" width="21.81" height="21.81" fill="#636b8b"/><polygon points="458.06,218.13 458.06,239.94 436.25,239.94" fill="#545d80"/><rect x="458.06" y="218.13" width="21.81" height="21.81" fill="#c5c8d4"/><polygon points="458.06,218.13 479.87,218.13 458.06,239.94" fill="#ffffff"/><rect x="436.25" y="239.94" width="21.81" height="21.81" fill="#767e9a"/><polygon points="436.25,239.94 458.06,239.94 458.06,261.75" fill="#d0d3dc"/><rect x="458.06" y="239.94" width="21.81" height="21.81" fill="#e3e5ea"/><polygon points="458.06,239.94 479.87,261.75 458.06,261.75" fill="#656d8d"/><rect x="479.875" y="218.125" width="43.625" height="43.625" fill="#ffffff"/><rect x="479.88" y="218.13" width="21.81" height="21.81" fill="#a7acbe"/><polygon points="501.69,218.13 501.69,239.94 479.88,239.94" fill="#ffffff"/><rect x="501.69" y="218.13" width="21.81" height="21.81" fill="#b0b4c4"/><polygon points="501.69,218.13 523.5,239.94 501.69,239.94" fill="#5a6384"/><rect x="479.88" y="239.94" width="21.81" height="21.81" fill="#717996"/><polygon points="479.88,239.94 501.69,239.94 501.69,261.75" fill="#ffffff"/><rect x="501.69" y="239.94" width="21.81" height="21.81" fill="#ffffff"/><polygon points="501.69,239.94 523.5,239.94 501.69,261.75" fill="#4d577b"/><rect x="0" y="261.75" width="43.625" height="43.625" fill="#ffffff"/><rect x="0" y="261.75" width="21.81" height="21.81" fill="#ffffff"/><polygon points="21.81,261.75 21.81,283.56 0,283.56" fill="#515a7e"/><rect x="21.81" y="261.75" width="21.81" height="21.81" fill="#ffffff"/><polygon points="21.81,261.75 43.62,261.75 21.81,283.56" fill="#e6e7ec"/><rect x="0" y="283.56" width="21.81" height="21.81" fill="#d5d7e0"/><polygon points="0,283.56 21.81,283.56 21.81,305.37" fill="#ffffff"/><rect x="21.81" y="283.56" width="21.81" height="21.81" fill="#ffffff"/><polygon points="21.81,283.56 43.62,305.37 21.81,305.37" fill="#3b466e"/><rect x="43.625" y="261.75" width="43.625" height="43.625" fill="#ffffff"/><rect x="43.63" y="261.75" width="21.81" height="21.81" fill="#c1c4d1"/><path d="M 43.63 283.56 A 21.81 21.81 0 0 1 65.44 261.75 L 65.44 267.2025 A 16.357499999999998 16.357499999999998 0 0 0 49.0825 283.56" fill="#b2b6c6"/><rect x="65.44" y="261.75" width="21.81" height="21.81" fill="#ffffff"/><path d="M 65.44 261.75 A 21.81 21.81 0 0 1 87.25 283.56 L 81.7975 283.56 A 16.357499999999998 16.357499999999998 0 0 0 65.44 267.2025" fill="#ffffff"/><rect x="43.63" y="283.56" width="21.81" height="21.81" fill="#ffffff"/><path d="M 43.63 283.56 A 21.81 21.81 0 0 0 65.44 305.37 L 65.44 299.9175 A 16.357499999999998 16.357499999999998 0 0 1 49.0825 283.56" fill="#ffffff"/><rect x="65.44" y="283.56" width="21.81" height="21.81" fill="#ffffff"/><path d="M 65.44 305.37 A 21.81 21.81 0 0 0 87.25 283.56 L 81.7975 283.56 A 16.357499999999998 16.357499999999998 0 0 1 65.44 299.9175" fill="#37426b"/><rect x="87.25" y="261.75" width="43.63" height="43.63" fill="#ffffff"/><path d="M 87.25 305.38 A 43.63 43.63 0 0 1  130.88 261.75 L 130.88 305.38" fill="#ffffff"/><rect x="130.875" y="261.75" width="43.625" height="43.625" fill="#ffffff"/><rect x="130.88" y="261.75" width="21.81" height="21.81" fill="#ffffff"/><path d="M 130.88 283.56 A 21.81 21.81 0 0 1 152.69 261.75 L 152.69 267.2025 A 16.357499999999998 16.357499999999998 0 0 0 136.33249999999998 283.56" fill="#a5aabc"/><rect x="152.69" y="261.75" width="21.81" height="21.81" fill="#ffffff"/><path d="M 152.69 261.75 A 21.81 21.81 0 0 1 174.5 283.56 L 169.04749999999999 283.56 A 16.357499999999998 16.357499999999998 0 0 0 152.69 267.2025" fill="#d8dae2"/><rect x="130.88" y="283.56" width="21.81" height="21.81" fill="#ffffff"/><path d="M 130.88 283.56 A 21.81 21.81 0 0 0 152.69 305.37 L 152.69 299.9175 A 16.357499999999998 16.357499999999998 0 0 1 136.33249999999998 283.56" fill="#e1e2e9"/><rect x="152.69" y="283.56" width="21.81" height="21.81" fill="#a9aebf"/><path d="M 152.69 305.37 A 21.81 21.81 0 0 0 174.5 283.56 L 169.04749999999999 283.56 A 16.357499999999998 16.357499999999998 0 0 1 152.69 299.9175" fill="#e8eaee"/><rect x="174.5" y="261.75" width="43.625" height="43.625" fill="#ffffff"/><rect x="174.5" y="261.75" width="21.81" height="21.81" fill="#ffffff"/><path d="M 174.5 261.75 A 21.81 21.81 0 0 1 196.31 283.56 L 174.5 283.56" fill="#e0e1e8"/><rect x="196.31" y="261.75" width="21.81" height="21.81" fill="#9096ad"/><path d="M 196.31 283.56 A 21.81 21.81 0 0 1  218.12 261.75 L 218.12 283.56" fill="#ffffff"/><rect x="174.5" y="283.56" width="21.81" height="21.81" fill="#ffffff"/><path d="M 174.5 305.37 A 21.81 21.81 0 0 0 196.31 283.56 L 174.5 283.56" fill="#ffffff"/><rect x="196.31" y="283.56" width="21.81" height="21.81" fill="#ffffff"/><path d="M 196.31 283.56 A 21.81 21.81 0 0 0 218.12 305.37 L 218.12 283.56" fill="#cacdd8"/><rect x="218.13" y="261.75" width="43.63" height="43.63" fill="#ffffff"/><rect x="218.13" y="261.75" width="43.63" height="43.63" fill="#434d74"/><rect x="261.75" y="261.75" width="43.625" height="43.625" fill="#ffffff"/><rect x="261.75" y="261.75" width="21.81" height="21.81" fill="#ffffff"/><polygon points="283.56,261.75 283.56,283.56 261.75,283.56" fill="#abb0c1"/><rect x="283.56" y="261.75" width="21.81" height="21.81" fill="#a9aebf"/><polygon points="283.56,261.75 305.37,283.56 283.56,283.56" fill="#ffffff"/><rect x="261.75" y="283.56" width="21.81" height="21.81" fill="#7f86a0"/><polygon points="261.75,283.56 283.56,283.56 283.56,305.37" fill="#ffffff"/><rect x="283.56" y="283.56" width="21.81" height="21.81" fill="#ffffff"/><polygon points="283.56,283.56 305.37,283.56 283.56,305.37" fill="#ffffff"/><rect x="305.38" y="261.75" width="43.63" height="43.63" fill="#9a9fb4"/><rect x="305.38" y="261.75" width="43.63" height="43.63" fill="#ffffff"/><rect x="349" y="261.75" width="43.63" height="43.63" fill="#898fa7"/><polygon points="392.63,261.75 392.63,305.38 349,305.38" fill="#666e8e"/><rect x="392.63" y="261.75" width="43.63" height="43.63" fill="#ffffff"/><path d="M 392.63 305.38 A 43.63 43.63 0 0 1  436.26 261.75 L 436.26 305.38" fill="#475176"/><rect x="436.25" y="261.75" width="43.63" height="43.63" fill="#ffffff"/><rect x="436.25" y="261.75" width="43.63" height="43.63" fill="#babdcc"/><rect x="479.88" y="261.75" width="43.63" height="43.63" fill="#ffffff"/><polygon points="479.88,261.75 523.51,261.75 523.51,305.38" fill="#f6f6f8"/><rect x="0" y="305.38" width="43.63" height="43.63" fill="#e7e8ed"/><rect x="0" y="305.38" width="43.63" height="43.63" fill="#eaebf0"/><rect x="43.63" y="305.38" width="43.63" height="43.63" fill="#b6bac9"/><rect x="43.63" y="305.38" width="43.63" height="43.63" fill="#ffffff"/><rect x="87.25" y="305.375" width="43.625" height="43.625" fill="#ffffff"/><rect x="87.25" y="305.38" width="21.81" height="21.81" fill="#ffffff"/><polygon points="109.06,305.38 109.06,327.19 87.25,327.19" fill="#ffffff"/><rect x="109.06" y="305.38" width="21.81" height="21.81" fill="#c4c7d3"/><polygon points="109.06,305.38 130.87,327.19 109.06,327.19" fill="#656e8d"/><rect x="87.25" y="327.19" width="21.81" height="21.81" fill="#ffffff"/><polygon points="87.25,327.19 109.06,327.19 87.25,349" fill="#c6c9d5"/><rect x="109.06" y="327.19" width="21.81" height="21.81" fill="#ffffff"/><polygon points="109.06,327.19 130.87,327.19 130.87,349" fill="#ffffff"/><rect x="130.875" y="305.375" width="43.625" height="43.625" fill="#ffffff"/><rect x="130.88" y="305.38" width="21.81" height="21.81" fill="#dddfe6"/><path d="M 130.88 305.38 A 21.81 21.81 0 0 0 152.69 327.19 L 152.69 305.38" fill="#5d6687"/><rect x="152.69" y="305.38" width="21.81" height="21.81" fill="#ffffff"/><path d="M 152.69 327.19 A 21.81 21.81 0 0 0 174.5 305.38 L 152.69 305.38" fill="#ffffff"/><rect x="130.88" y="327.19" width="21.81" height="21.81" fill="#ffffff"/><path d="M 130.88 349 A 21.81 21.81 0 0 1  152.69 327.19 L 152.69 349" fill="#ecedf1"/><rect x="152.69" y="327.19" width="21.81" height="21.81" fill="#ffffff"/><path d="M 152.69 327.19 A 21.81 21.81 0 0 1 174.5 349 L 152.69 349" fill="#3b456d"/><rect x="174.5" y="305.38" width="43.63" height="43.63" fill="#ffffff"/><polygon points="174.5,305.38 218.13,305.38 174.5,349.01" fill="#ffffff"/><rect x="218.125" y="305.375" width="43.625" height="43.625" fill="#ffffff"/><rect x="218.13" y="305.38" width="21.81" height="21.81" fill="#cacdd8"/><circle cx="229.035" cy="316.28499999999997" r="10.905" fill="#c3c6d2"/><rect x="239.94" y="305.38" width="21.81" height="21.81" fill="#ffffff"/><rect x="239.94" y="305.38" width="21.81" height="21.81" fill="#ffffff"/><rect x="218.13" y="327.19" width="21.81" height="21.81" fill="#858ca5"/><circle cx="229.035" cy="338.09499999999997" r="10.905" fill="#ffffff"/><rect x="239.94" y="327.19" width="21.81" height="21.81" fill="#989db3"/><rect x="239.94" y="327.19" width="21.81" height="21.81" fill="#ffffff"/><rect x="261.75" y="305.38" width="43.63" height="43.63" fill="#ffffff"/><path d="M 261.75 305.38 A 43.63 43.63 0 0 1 305.38 349.01 L 261.75 349.01" fill="#ffffff"/><rect x="305.38" y="305.38" width="43.63" height="43.63" fill="#a3a8ba"/><path d="M 305.38 305.38 A 43.63 43.63 0 0 1 349.01 349.01 L 305.38 349.01" fill="#9da3b7"/><rect x="349" y="305.375" width="43.625" height="43.625" fill="#ffffff"/><rect x="349" y="305.38" width="21.81" height="21.81" fill="#b9bccb"/><path d="M 349 327.19 A 21.81 21.81 0 0 1 370.81 305.38 L 370.81 310.8325 A 16.357499999999998 16.357499999999998 0 0 0 354.4525 327.19" fill="#ffffff"/><rect x="370.81" y="305.38" width="21.81" height="21.81" fill="#9096ad"/><path d="M 370.81 305.38 A 21.81 21.81 0 0 1 392.62 327.19 L 387.1675 327.19 A 16.357499999999998 16.357499999999998 0 0 0 370.81 310.8325" fill="#ffffff"/><rect x="349" y="327.19" width="21.81" height="21.81" fill="#545e80"/><path d="M 349 327.19 A 21.81 21.81 0 0 0 370.81 349 L 370.81 343.5475 A 16.357499999999998 16.357499999999998 0 0 1 354.4525 327.19" fill="#ffffff"/><rect x="370.81" y="327.19" width="21.81" height="21.81" fill="#404a71"/><path d="M 370.81 349 A 21.81 21.81 0 0 0 392.62 327.19 L 387.1675 327.19 A 16.357499999999998 16.357499999999998 0 0 1 370.81 343.5475" fill="#ffffff"/><rect x="392.63" y="305.38" width="43.63" height="43.63" fill="#ffffff"/><polygon points="392.63,305.38 436.26,305.38 392.63,349.01" fill="#565f81"/><rect x="436.25" y="305.38" width="43.63" height="43.63" fill="#bec2cf"/><polygon points="436.25,305.38 479.88,305.38 436.25,349.01" fill="#e3e5ea"/><rect x="479.88" y="305.38" width="43.63" height="43.63" fill="#cccfd9"/><polygon points="523.51,305.38 523.51,349.01 479.88,349.01" fill="#35406a"/></g></svg>